<svg width="161" height="160" viewBox="0 0 161 160" fill="none" xmlns="http://www.w3.org/2000/svg">
<path d="M134.245 124.65C141.426 116.011 146.42 105.769 148.805 94.791C151.19 83.8132 150.896 72.4224 147.948 61.5821C145 50.7419 139.485 40.7712 131.868 32.5134C124.252 24.2557 114.758 17.9538 104.191 14.141C93.6242 10.3281 82.2943 9.11645 71.1598 10.6085C60.0254 12.1004 49.4141 16.2522 40.2236 22.7126C31.0331 29.1729 23.5337 37.7518 18.36 47.7234C13.1862 57.695 10.4902 68.7661 10.5 80.0001C10.5042 96.3309 16.2591 112.139 26.755 124.65L26.655 124.735C27.005 125.155 27.405 125.515 27.765 125.93C28.215 126.445 28.7 126.93 29.165 127.43C30.5584 128.953 32.0084 130.403 33.515 131.78C33.9817 132.193 34.4484 132.597 34.915 132.99C36.515 134.373 38.165 135.677 39.865 136.9C40.085 137.05 40.285 137.245 40.505 137.4V137.34C52.2153 145.582 66.1854 150.005 80.505 150.005C94.8247 150.005 108.795 145.582 120.505 137.34V137.4C120.725 137.245 120.92 137.05 121.145 136.9C122.845 135.673 124.495 134.37 126.095 132.99C126.562 132.593 127.028 132.19 127.495 131.78C128.998 130.403 130.448 128.953 131.845 127.43C132.31 126.93 132.79 126.445 133.245 125.93C133.6 125.515 134.005 125.155 134.355 124.73L134.245 124.65ZM80.5 40.0001C84.9501 40.0001 89.3003 41.3197 93.0004 43.792C96.7005 46.2643 99.5843 49.7783 101.287 53.8897C102.99 58.001 103.436 62.525 102.568 66.8896C101.7 71.2542 99.5566 75.2633 96.4099 78.41C93.2632 81.5566 89.2541 83.6996 84.8896 84.5677C80.525 85.4359 76.001 84.9903 71.8897 83.2873C67.7783 81.5844 64.2643 78.7005 61.792 75.0004C59.3196 71.3003 58 66.9501 58 62.5001C58 56.5327 60.3706 50.8097 64.5901 46.5902C68.8097 42.3706 74.5327 40.0001 80.5 40.0001ZM40.535 124.65C40.6218 118.085 43.2898 111.818 47.9618 107.205C52.6339 102.592 58.9343 100.003 65.5 100H95.5C102.066 100.003 108.366 102.592 113.038 107.205C117.71 111.818 120.378 118.085 120.465 124.65C109.499 134.532 95.2613 140 80.5 140C65.7387 140 51.5008 134.532 40.535 124.65Z" fill="#162A6C"/>
</svg>
