<svg width="18" height="18" viewBox="0 0 18 18" fill="none" xmlns="http://www.w3.org/2000/svg">
<path fill-rule="evenodd" clip-rule="evenodd" d="M9.18403 16.5001C8.16778 16.5001 7.17703 16.4889 6.19678 16.4686C4.94278 16.4439 4.07503 15.6309 3.93328 14.3469C3.69703 12.2169 3.29278 7.19636 3.28903 7.14611C3.26353 6.83636 3.49453 6.56486 3.80428 6.54011C4.10953 6.53186 4.38553 6.74636 4.41028 7.05536C4.41403 7.10636 4.81753 12.1096 5.05153 14.2231C5.13178 14.9529 5.52553 15.3294 6.22003 15.3436C8.09503 15.3834 10.0083 15.3856 12.0708 15.3481C12.8088 15.3339 13.2078 14.9649 13.2903 14.2179C13.5228 12.1224 13.9278 7.10636 13.9323 7.05536C13.957 6.74636 14.2308 6.53036 14.5375 6.54011C14.8473 6.56561 15.0783 6.83636 15.0535 7.14611C15.049 7.19711 14.6425 12.2304 14.4085 14.3416C14.263 15.6519 13.3975 16.4491 12.091 16.4731C11.0913 16.4904 10.1268 16.5001 9.18403 16.5001Z" fill="black"/>
<path fill-rule="evenodd" clip-rule="evenodd" d="M15.531 5.24194H2.8125C2.502 5.24194 2.25 4.98994 2.25 4.67944C2.25 4.36894 2.502 4.11694 2.8125 4.11694H15.531C15.8415 4.11694 16.0935 4.36894 16.0935 4.67944C16.0935 4.98994 15.8415 5.24194 15.531 5.24194Z" fill="black"/>
<path fill-rule="evenodd" clip-rule="evenodd" d="M13.0809 5.24199C12.2274 5.24199 11.4864 4.63374 11.3184 3.79674L11.1362 2.88474C11.0979 2.74599 10.9397 2.62524 10.7597 2.62524H7.58492C7.40492 2.62524 7.24667 2.74599 7.20092 2.91924L7.02617 3.79674C6.85892 4.63374 6.11717 5.24199 5.26367 5.24199C4.95317 5.24199 4.70117 4.98999 4.70117 4.67949C4.70117 4.36899 4.95317 4.11699 5.26367 4.11699C5.58317 4.11699 5.86067 3.88899 5.92367 3.57549L6.10592 2.66349C6.29117 1.96449 6.89642 1.50024 7.58492 1.50024H10.7597C11.4482 1.50024 12.0534 1.96449 12.2312 2.62974L12.4217 3.57549C12.4839 3.88899 12.7614 4.11699 13.0809 4.11699C13.3914 4.11699 13.6434 4.36899 13.6434 4.67949C13.6434 4.98999 13.3914 5.24199 13.0809 5.24199Z" fill="black"/>
</svg>
