<svg width="28" height="28" viewBox="0 0 28 28" fill="none" xmlns="http://www.w3.org/2000/svg">
<path d="M14 0C21.7322 0 28 6.2678 28 14C28 21.7322 21.7322 28 14 28C6.2678 28 0 21.7322 0 14C0 6.2678 6.2678 0 14 0ZM15.1032 7.9044L9.6852 13.4638C9.50958 13.643 9.4118 13.8842 9.41311 14.1351C9.41442 14.386 9.51472 14.6263 9.6922 14.8036L15.1102 20.2566C15.1975 20.3502 15.3026 20.4253 15.4195 20.4774C15.5363 20.5295 15.6624 20.5577 15.7904 20.5601C15.9183 20.5625 16.0454 20.5392 16.1641 20.4916C16.2829 20.4439 16.3908 20.3729 16.4816 20.2827C16.5723 20.1925 16.644 20.085 16.6924 19.9666C16.7408 19.8481 16.7649 19.7212 16.7632 19.5932C16.7616 19.4653 16.7343 19.339 16.6829 19.2218C16.6315 19.1047 16.557 18.999 16.464 18.9112L11.7082 14.1232L16.471 9.2372C16.6477 9.05582 16.7452 8.81166 16.7419 8.55843C16.7386 8.3052 16.6349 8.06364 16.4535 7.8869C16.2721 7.71016 16.028 7.61271 15.7747 7.61599C15.5215 7.61928 15.2799 7.72302 15.1032 7.9044Z" fill="#162A6C"/>
</svg>
