<svg width="40" height="40" viewBox="0 0 40 40" fill="none" xmlns="http://www.w3.org/2000/svg">
<path d="M5.70829 4.29204C5.61531 4.19907 5.50493 4.12531 5.38345 4.075C5.26197 4.02468 5.13177 3.99878 5.00029 3.99878C4.8688 3.99878 4.7386 4.02468 4.61712 4.075C4.49564 4.12531 4.38526 4.19907 4.29229 4.29204C4.19931 4.38502 4.12556 4.4954 4.07524 4.61688C4.02492 4.73835 3.99902 4.86855 3.99902 5.00004C3.99902 5.13153 4.02492 5.26173 4.07524 5.38321C4.12556 5.50469 4.19931 5.61507 4.29229 5.70804L9.78029 11.196L4.72429 17.046C4.25723 17.5899 4.00039 18.2831 4.00029 19V25C4.00029 26.3261 4.52707 27.5979 5.46475 28.5356C6.40243 29.4733 7.6742 30 9.00029 30H13.0003C14.3264 30 15.5981 29.4733 16.5358 28.5356C17.4735 27.5979 18.0003 26.3261 18.0003 25V22H20.5863L22.0003 23.414V25C22.0003 26.3261 22.5271 27.5979 23.4648 28.5356C24.4024 29.4733 25.6742 30 27.0003 30H28.5863L34.2923 35.708C34.4801 35.8958 34.7347 36.0013 35.0003 36.0013C35.2658 36.0013 35.5205 35.8958 35.7083 35.708C35.8961 35.5203 36.0015 35.2656 36.0015 35C36.0015 34.7345 35.8961 34.4798 35.7083 34.292L5.70829 4.29204ZM14.5863 16H8.27229L11.1983 12.614L14.5863 16ZM16.0003 19V25C16.0003 25.7957 15.6842 26.5588 15.1216 27.1214C14.559 27.684 13.7959 28 13.0003 28H9.00029C8.20464 28 7.44158 27.684 6.87897 27.1214C6.31636 26.5588 6.00029 25.7957 6.00029 25V19C6.00029 18.7348 6.10564 18.4805 6.29318 18.2929C6.48072 18.1054 6.73507 18 7.00029 18H15.0003C15.2655 18 15.5199 18.1054 15.7074 18.2929C15.8949 18.4805 16.0003 18.7348 16.0003 19ZM24.0003 19.758L22.1903 17.948C22.4046 17.3758 22.7884 16.8827 23.2906 16.5345C23.7928 16.1864 24.3893 15.9999 25.0003 16H31.7143L27.1403 10.694C26.9526 10.4764 26.7202 10.3017 26.459 10.182C26.1977 10.0622 25.9137 10.0001 25.6263 10H24.0003C23.7351 10 23.4807 9.89469 23.2932 9.70715C23.1056 9.51961 23.0003 9.26526 23.0003 9.00004C23.0003 8.73483 23.1056 8.48047 23.2932 8.29294C23.4807 8.1054 23.7351 8.00004 24.0003 8.00004H25.6263C26.2014 7.99996 26.7698 8.12391 27.2927 8.36344C27.8156 8.60297 28.2807 8.95245 28.6563 9.38804L35.0643 16.824C35.6403 17.37 36.0003 18.144 36.0003 19V25C36.0003 26.832 35.0163 28.432 33.5463 29.304L32.0523 27.81C32.6245 27.5958 33.1177 27.2119 33.4658 26.7097C33.8139 26.2076 34.0004 25.6111 34.0003 25V19C34.0001 18.7589 33.9127 18.5259 33.7543 18.344L33.7423 18.352L33.6343 18.226C33.4554 18.0797 33.2314 17.9999 33.0003 18H25.0003C24.7351 18 24.4807 18.1054 24.2932 18.2929C24.1056 18.4805 24.0003 18.7348 24.0003 19V19.758ZM14.2463 10.004L12.6383 8.39604C13.1792 8.13558 13.7719 8.00023 14.3723 8.00004H16.0003C16.2655 8.00004 16.5199 8.1054 16.7074 8.29294C16.8949 8.48047 17.0003 8.73483 17.0003 9.00004C17.0003 9.26526 16.8949 9.51961 16.7074 9.70715C16.5199 9.89469 16.2655 10 16.0003 10H14.3723L14.2463 10.004Z" fill="black"/>
</svg>
