<svg width="40" height="40" viewBox="0 0 40 40" fill="none" xmlns="http://www.w3.org/2000/svg">
<path d="M17.0383 24.8267C16.455 24.8267 15.9617 24.625 15.5583 24.2217C15.155 23.8183 14.9539 23.3256 14.955 22.7433C14.9561 22.1611 15.1578 21.6678 15.56 21.2633C15.9622 20.8589 16.455 20.6578 17.0383 20.66C17.6217 20.6622 18.115 20.8639 18.5183 21.265C18.9217 21.6661 19.1228 22.1589 19.1217 22.7433C19.1206 23.3278 18.9189 23.8211 18.5167 24.2233C18.1144 24.6256 17.6217 24.8267 17.0383 24.8267ZM27.0383 24.8267C26.455 24.8267 25.9617 24.625 25.5583 24.2217C25.155 23.8183 24.9539 23.3256 24.955 22.7433C24.9561 22.1611 25.1578 21.6678 25.56 21.2633C25.9622 20.8589 26.455 20.6578 27.0383 20.66C27.6217 20.6622 28.115 20.8639 28.5183 21.265C28.9217 21.6661 29.1228 22.1589 29.1217 22.7433C29.1206 23.3278 28.9189 23.8211 28.5167 24.2233C28.1144 24.6256 27.6217 24.8267 27.0383 24.8267ZM22.0383 34.41C25.7606 34.41 28.9133 33.1183 31.4967 30.535C34.08 27.9517 35.3717 24.7989 35.3717 21.0767C35.3717 20.41 35.33 19.7644 35.2467 19.14C35.1633 18.5156 35.0106 17.9111 34.7883 17.3267C34.205 17.4656 33.6217 17.57 33.0383 17.64C32.455 17.71 31.8439 17.7444 31.205 17.7433C28.6772 17.7433 26.2883 17.2017 24.0383 16.1183C21.7883 15.035 19.8717 13.5211 18.2883 11.5767C17.3994 13.7433 16.1289 15.6256 14.4767 17.2233C12.8244 18.8211 10.9006 20.0222 8.705 20.8267V21.0767C8.705 24.7989 9.99667 27.9517 12.58 30.535C15.1633 33.1183 18.3161 34.41 22.0383 34.41ZM18.2183 8.27167C19.5761 10.9861 21.4961 12.9656 23.9783 14.21C26.4606 15.4544 28.8694 16.0767 31.205 16.0767C31.7228 16.0767 32.2317 16.0506 32.7317 15.9983C33.2317 15.9461 33.7294 15.86 34.225 15.74C33.165 13.2622 31.5228 11.31 29.2983 9.88333C27.0739 8.45667 24.6539 7.74333 22.0383 7.74333C21.3072 7.74333 20.6383 7.78556 20.0317 7.87C19.425 7.95444 18.8206 8.08833 18.2183 8.27167ZM8.93333 18.92C10.6489 18.1567 12.3872 16.9067 14.1483 15.17C15.9083 13.4322 16.935 11.2483 17.2283 8.61833C14.9994 9.46722 13.1539 10.8028 11.6917 12.625C10.2306 14.4472 9.31111 16.5456 8.93333 18.92ZM7.74667 16.8433C8.35333 14.6222 9.41778 12.665 10.94 10.9717C12.4622 9.27833 14.3017 8.02167 16.4583 7.20167C15.8583 6.44722 15.1139 5.83611 14.225 5.36833C13.3361 4.90056 12.3544 4.66667 11.28 4.66667C9.42889 4.66667 7.86389 5.30667 6.585 6.58667C5.30611 7.86889 4.66667 9.43778 4.66667 11.2933C4.66667 12.46 4.94889 13.5267 5.51333 14.4933C6.07667 15.46 6.82111 16.2433 7.74667 16.8433ZM22.0433 36.0767C19.97 36.0767 18.02 35.6828 16.1933 34.895C14.3678 34.1083 12.7794 33.04 11.4283 31.69C10.0772 30.34 9.00778 28.7522 8.22 26.9267C7.43222 25.1011 7.03833 23.1511 7.03833 21.0767C7.03833 20.6389 7.05667 20.2044 7.09333 19.7733C7.13 19.3422 7.195 18.9261 7.28833 18.525C5.98722 17.825 4.94722 16.8333 4.16833 15.55C3.38944 14.2667 3 12.8472 3 11.2917C3 8.98611 3.80556 7.02778 5.41667 5.41667C7.02778 3.80556 8.98611 3 11.2917 3C12.7006 3 13.9961 3.32778 15.1783 3.98333C16.3606 4.63889 17.3267 5.51611 18.0767 6.615C18.7133 6.435 19.3639 6.30056 20.0283 6.21167C20.6928 6.12278 21.3628 6.07778 22.0383 6.07667C24.1139 6.07667 26.0639 6.47056 27.8883 7.25833C29.7128 8.04611 31.3006 9.11444 32.6517 10.4633C34.0028 11.8122 35.0711 13.3989 35.8567 15.2233C36.6422 17.0478 37.0361 18.9972 37.0383 21.0717C37.0406 23.1461 36.6472 25.0961 35.8583 26.9217C35.0694 28.7472 34.0006 30.3356 32.6517 31.6867C31.3028 33.0378 29.7161 34.1072 27.8917 34.895C26.0672 35.6828 24.1178 36.0767 22.0433 36.0767Z" fill="black"/>
</svg>
