<svg width="24" height="25" viewBox="0 0 24 25" fill="none" xmlns="http://www.w3.org/2000/svg">
<path fill-rule="evenodd" clip-rule="evenodd" d="M10.7987 3.5H13.2002C13.3652 3.5 13.4987 3.6335 13.4987 3.7985C13.4987 6.5105 16.4357 8.207 18.7847 6.8495C18.8532 6.81073 18.9343 6.80049 19.0103 6.82098C19.0864 6.84146 19.1513 6.89104 19.1912 6.959L20.3942 9.041C20.4329 9.10957 20.4432 9.19063 20.4227 9.26668C20.4022 9.34274 20.3526 9.40768 20.2847 9.4475C17.9357 10.805 17.9357 14.195 20.2847 15.5525C20.3526 15.5923 20.4022 15.6573 20.4227 15.7333C20.4432 15.8094 20.4329 15.8904 20.3942 15.959L19.1912 18.041C19.1513 18.109 19.0864 18.1585 19.0103 18.179C18.9343 18.1995 18.8532 18.1893 18.7847 18.1505C16.4372 16.793 13.5002 18.4895 13.5002 21.2C13.5002 21.365 13.3667 21.4985 13.2017 21.4985H10.8002C10.7211 21.4985 10.6453 21.4673 10.5891 21.4117C10.5329 21.3561 10.501 21.2805 10.5002 21.2015C10.5002 18.4895 7.56316 16.793 5.21416 18.1505C5.14546 18.1897 5.06403 18.2002 4.98762 18.1797C4.91121 18.1592 4.84599 18.1094 4.80616 18.041L3.60616 15.959C3.56727 15.8906 3.55679 15.8097 3.57699 15.7337C3.59719 15.6576 3.64645 15.5926 3.71416 15.5525C6.06316 14.195 6.06316 10.805 3.71416 9.4475C3.6462 9.40768 3.59662 9.34274 3.57614 9.26668C3.55565 9.19063 3.56589 9.10957 3.60466 9.041L4.80616 6.959C4.84599 6.89064 4.91121 6.84077 4.98762 6.82026C5.06403 6.79975 5.14546 6.81026 5.21416 6.8495C7.56316 8.207 10.5002 6.5105 10.5002 3.8C10.5002 3.635 10.6337 3.5 10.7987 3.5ZM8.25016 3.7985C8.25016 2.39 9.39016 1.25 10.7987 1.25H13.2002C14.6072 1.25 15.7487 2.39 15.7487 3.7985C15.7491 4.02195 15.8083 4.24135 15.9202 4.43473C16.0322 4.62811 16.193 4.78868 16.3865 4.90034C16.5801 5.012 16.7996 5.07084 17.023 5.07095C17.2464 5.07107 17.466 5.01246 17.6597 4.901C18.245 4.56389 18.9402 4.47279 19.5926 4.64771C20.2451 4.82263 20.8015 5.24928 21.1397 5.834L22.3427 7.916C23.0462 9.134 22.6277 10.6925 21.4097 11.396C21.2159 11.5079 21.055 11.6689 20.9432 11.8627C20.8314 12.0564 20.7725 12.2763 20.7725 12.5C20.7725 12.7237 20.8314 12.9436 20.9432 13.1373C21.055 13.3311 21.2159 13.4921 21.4097 13.604C21.9944 13.9422 22.421 14.4986 22.5959 15.151C22.7709 15.8035 22.6798 16.4987 22.3427 17.084L21.1397 19.166C20.8015 19.7507 20.2451 20.1774 19.5926 20.3523C18.9402 20.5272 18.245 20.4361 17.6597 20.099C17.466 19.9875 17.2464 19.9289 17.023 19.929C16.7996 19.9292 16.5801 19.988 16.3865 20.0997C16.193 20.2113 16.0322 20.3719 15.9202 20.5653C15.8083 20.7586 15.7491 20.9781 15.7487 21.2015C15.7487 22.6085 14.6087 23.75 13.2002 23.75H10.8002C9.39316 23.75 8.25166 22.61 8.25166 21.2015C8.25121 20.9781 8.19205 20.7586 8.08011 20.5653C7.96816 20.3719 7.80735 20.2113 7.61381 20.0997C7.42026 19.988 7.20077 19.9292 6.97732 19.929C6.75388 19.9289 6.53432 19.9875 6.34066 20.099C5.75531 20.4361 5.06012 20.5272 4.40768 20.3523C3.75524 20.1774 3.19886 19.7507 2.86066 19.166L1.65766 17.084C1.32055 16.4987 1.22945 15.8035 1.40437 15.151C1.5793 14.4986 2.00594 13.9422 2.59066 13.604C2.7844 13.4921 2.94527 13.3311 3.05712 13.1373C3.16896 12.9436 3.22784 12.7237 3.22784 12.5C3.22784 12.2763 3.16896 12.0564 3.05712 11.8627C2.94527 11.6689 2.7844 11.5079 2.59066 11.396C2.00594 11.0578 1.5793 10.5014 1.40437 9.84898C1.22945 9.19654 1.32055 8.50135 1.65766 7.916L2.85916 5.834C3.19736 5.24928 3.75374 4.82263 4.40618 4.64771C5.05862 4.47279 5.75381 4.56389 6.33916 4.901C6.53271 5.0124 6.75213 5.07101 6.97545 5.07096C7.19877 5.07091 7.41816 5.0122 7.61166 4.90072C7.80516 4.78923 7.96599 4.62888 8.07805 4.43571C8.1901 4.24254 8.24945 4.02332 8.25016 3.8M15.7502 13.8005C15.9782 13.6688 16.1675 13.4795 16.2992 13.2515C16.4308 13.0234 16.5001 12.7648 16.5001 12.5015C16.5001 12.2382 16.4308 11.9796 16.2992 11.7515C16.1675 11.5235 15.9782 11.3342 15.7502 11.2025L11.2502 8.6045C11.0221 8.47285 10.7635 8.40354 10.5002 8.40354C10.2369 8.40354 9.9782 8.47284 9.75018 8.60449C9.52215 8.73614 9.33279 8.92549 9.20114 9.15351C9.06948 9.38154 9.00017 9.6402 9.00016 9.9035V15.0995C9.00017 15.3628 9.06948 15.6215 9.20114 15.8495C9.33279 16.0775 9.52215 16.2669 9.75018 16.3985C9.9782 16.5302 10.2369 16.5995 10.5002 16.5995C10.7635 16.5995 11.0221 16.5302 11.2502 16.3985L15.7502 13.8005Z" fill="white"/>
</svg>
