<svg width="40" height="40" viewBox="0 0 40 40" fill="none" xmlns="http://www.w3.org/2000/svg">
<mask id="mask0_213_4120" style="mask-type:luminance" maskUnits="userSpaceOnUse" x="5" y="3" width="29" height="34">
<path fill-rule="evenodd" clip-rule="evenodd" d="M5 3.35278H33.4212V36.442H5V3.35278Z" fill="white"/>
</mask>
<g mask="url(#mask0_213_4120)">
<path fill-rule="evenodd" clip-rule="evenodd" d="M12.6218 5.85278C9.86017 5.85278 7.56684 8.08945 7.50184 10.8478V28.6728C7.44017 31.5278 9.69017 33.8794 12.5168 33.9428H25.9568C28.7385 33.8278 30.9418 31.5161 30.9218 28.6828V13.8994L23.1968 5.85278H12.6418H12.6218ZM12.6418 36.4428H12.4602C8.25684 36.3478 4.91017 32.8511 5.00184 28.6461V10.8178C5.09851 6.68278 8.51351 3.35278 12.6185 3.35278H12.6468H23.7302C24.0702 3.35278 24.3952 3.49112 24.6318 3.73612L33.0735 12.5311C33.2968 12.7628 33.4218 13.0744 33.4218 13.3961V28.6728C33.4518 32.8545 30.1952 36.2711 26.0068 36.4411L12.6418 36.4428Z" fill="black"/>
</g>
<path fill-rule="evenodd" clip-rule="evenodd" d="M32.1646 14.9737H27.573C24.523 14.9654 22.043 12.4787 22.043 9.43207V4.58374C22.043 3.89374 22.603 3.33374 23.293 3.33374C23.983 3.33374 24.543 3.89374 24.543 4.58374V9.43207C24.543 11.1054 25.9046 12.4687 27.5763 12.4737H32.1646C32.8546 12.4737 33.4146 13.0337 33.4146 13.7237C33.4146 14.4137 32.8546 14.9737 32.1646 14.9737Z" fill="black"/>
<path fill-rule="evenodd" clip-rule="evenodd" d="M22.9805 26.8472H13.9805C13.2905 26.8472 12.7305 26.2872 12.7305 25.5972C12.7305 24.9072 13.2905 24.3472 13.9805 24.3472H22.9805C23.6705 24.3472 24.2305 24.9072 24.2305 25.5972C24.2305 26.2872 23.6705 26.8472 22.9805 26.8472Z" fill="black"/>
<path fill-rule="evenodd" clip-rule="evenodd" d="M19.5718 20.594H13.9785C13.2885 20.594 12.7285 20.034 12.7285 19.344C12.7285 18.654 13.2885 18.094 13.9785 18.094H19.5718C20.2618 18.094 20.8218 18.654 20.8218 19.344C20.8218 20.034 20.2618 20.594 19.5718 20.594Z" fill="black"/>
</svg>
