<svg width="21" height="24" viewBox="0 0 21 24" fill="none" xmlns="http://www.w3.org/2000/svg">
<mask id="mask0_800_619" style="mask-type:luminance" maskUnits="userSpaceOnUse" x="0" y="15" width="21" height="10">
<path fill-rule="evenodd" clip-rule="evenodd" d="M0 15.0935H21V24.0002H0V15.0935Z" fill="white"/>
</mask>
<g mask="url(#mask0_800_619)">
<path fill-rule="evenodd" clip-rule="evenodd" d="M10.502 16.9053C4.85291 16.9053 1.98926 17.7894 1.98926 19.5348C1.98926 21.2958 4.85291 22.1884 10.502 22.1884C16.1498 22.1884 19.0121 21.3043 19.0121 19.5589C19.0121 17.7979 16.1498 16.9053 10.502 16.9053M10.5014 24.0002C7.90422 24.0002 0 24.0002 0 19.5348C0 15.5537 5.99379 15.0935 10.5014 15.0935C13.0986 15.0935 21.0001 15.0935 21.0001 19.5589C21.0001 23.54 15.0077 24.0002 10.5014 24.0002" fill="black"/>
</g>
<mask id="mask1_800_619" style="mask-type:luminance" maskUnits="userSpaceOnUse" x="3" y="0" width="15" height="13">
<path fill-rule="evenodd" clip-rule="evenodd" d="M3.46094 0H17.5406V12.8257H3.46094V0Z" fill="white"/>
</mask>
<g mask="url(#mask1_800_619)">
<path fill-rule="evenodd" clip-rule="evenodd" d="M10.4969 1.72437C7.65839 1.72437 5.34891 3.82723 5.34891 6.41324C5.33962 8.9908 7.63187 11.0925 10.4584 11.1021L10.4969 11.9645V11.1021C13.334 11.1021 15.6422 8.99804 15.6422 6.41324C15.6422 3.82723 13.334 1.72437 10.4969 1.72437M10.4982 12.8254H10.4558C6.5819 12.8146 3.44382 9.93626 3.45707 6.40933C3.45707 2.87637 6.61505 -0.000732422 10.4982 -0.000732422C14.3801 -0.000732422 17.5367 2.87637 17.5367 6.41296C17.5367 9.94954 14.3801 12.8254 10.4982 12.8254" fill="black"/>
</g>
</svg>
