<svg width="138" height="138" viewBox="0 0 138 138" fill="none" xmlns="http://www.w3.org/2000/svg">
<g opacity="0.4">
<path d="M69 106.375C69 111.493 70.035 116.323 71.875 120.75H28.75C25.7 120.75 22.7749 119.538 20.6183 117.382C18.4616 115.225 17.25 112.3 17.25 109.25V28.75C17.25 22.425 22.425 17.25 28.75 17.25H109.25C112.3 17.25 115.225 18.4616 117.382 20.6183C119.538 22.7749 120.75 25.7 120.75 28.75V71.875C116.323 70.035 111.493 69 106.375 69C99.4175 69 92.92 70.955 87.3425 74.29L83.375 69L63.25 94.875L48.875 77.625L28.75 103.5H69.1725C69 104.478 69 105.397 69 106.375ZM126.5 106.375V83.375L119.772 90.1025C117.635 87.9673 115.098 86.2742 112.306 85.1199C109.513 83.9655 106.521 83.3726 103.5 83.375C90.7925 83.375 80.5 93.6675 80.5 106.375C80.5 119.082 90.7925 129.375 103.5 129.375C113.16 129.375 121.44 123.452 124.832 115H115C113.239 117.341 110.806 119.089 108.024 120.008C105.243 120.928 102.247 120.976 99.438 120.146C96.6287 119.316 94.14 117.648 92.3052 115.364C90.4703 113.081 89.377 110.291 89.1714 107.369C88.9659 104.447 89.658 101.532 91.1551 99.0137C92.6522 96.4958 94.8829 94.4954 97.5483 93.2803C100.214 92.0652 103.187 91.6935 106.069 92.2148C108.952 92.7362 111.607 94.1258 113.678 96.1975L103.5 106.375H126.5Z" fill="#3A4B9A"/>
</g>
</svg>
