<svg width="24" height="25" viewBox="0 0 24 25" fill="none" xmlns="http://www.w3.org/2000/svg">
<path d="M12 19C12 19.89 12.18 20.73 12.5 21.5H5C4.46957 21.5 3.96086 21.2893 3.58579 20.9142C3.21071 20.5391 3 20.0304 3 19.5V5.5C3 4.4 3.9 3.5 5 3.5H19C19.5304 3.5 20.0391 3.71071 20.4142 4.08579C20.7893 4.46086 21 4.96957 21 5.5V13C20.23 12.68 19.39 12.5 18.5 12.5C17.29 12.5 16.16 12.84 15.19 13.42L14.5 12.5L11 17L8.5 14L5 18.5H12.03C12 18.67 12 18.83 12 19ZM22 19V15L20.83 16.17C20.4583 15.7987 20.017 15.5042 19.5314 15.3035C19.0458 15.1027 18.5254 14.9996 18 15C15.79 15 14 16.79 14 19C14 21.21 15.79 23 18 23C19.68 23 21.12 21.97 21.71 20.5H20C19.6938 20.9072 19.2705 21.2111 18.7868 21.371C18.3031 21.531 17.7821 21.5393 17.2936 21.395C16.805 21.2506 16.3722 20.9605 16.0531 20.5633C15.734 20.1662 15.5438 19.6811 15.5081 19.1729C15.4723 18.6647 15.5927 18.1577 15.8531 17.7198C16.1134 17.2819 16.5014 16.934 16.9649 16.7227C17.4285 16.5113 17.9455 16.4467 18.4469 16.5374C18.9482 16.628 19.4098 16.8697 19.77 17.23L18 19H22Z" fill="white"/>
</svg>
