<svg width="25" height="25" viewBox="0 0 25 25" fill="none" xmlns="http://www.w3.org/2000/svg">
<g clip-path="url(#clip0_207_4070)">
<path d="M12.5213 0.875019C15.6277 0.880597 18.4481 2.10469 20.5303 4.09463L22.2045 2.42049C22.9132 1.71178 24.125 2.21372 24.125 3.216V9.50002C24.125 10.1213 23.6213 10.625 23 10.625H16.716C15.7137 10.625 15.2118 9.41325 15.9205 8.7045L17.8775 6.74747C16.4307 5.39283 14.5587 4.64246 12.5698 4.6253C8.23869 4.58789 4.58783 8.09297 4.62528 12.5679C4.66081 16.8129 8.10238 20.375 12.5 20.375C14.4278 20.375 16.2499 19.687 17.6857 18.4271C17.9081 18.232 18.2438 18.2439 18.453 18.453L20.3121 20.3122C20.5405 20.5405 20.5292 20.9129 20.2895 21.1293C18.2282 22.9913 15.4965 24.125 12.5 24.125C6.07972 24.125 0.875047 18.9203 0.875 12.5001C0.874953 6.08719 6.10841 0.863535 12.5213 0.875019Z" fill="black"/>
</g>
<defs>
<clipPath id="clip0_207_4070">
<rect width="24" height="24" fill="white" transform="translate(0.5 0.5)"/>
</clipPath>
</defs>
</svg>
