<svg width="28" height="28" viewBox="0 0 28 28" fill="none" xmlns="http://www.w3.org/2000/svg">
<path d="M14 0C21.7322 0 28 6.2678 28 14C28 21.7322 21.7322 28 14 28C6.2678 28 0 21.7322 0 14C0 6.2678 6.2678 0 14 0ZM12.2486 7.9044C12.1622 7.81033 12.0578 7.73456 11.9416 7.68155C11.8254 7.62855 11.6998 7.5994 11.5721 7.59582C11.4444 7.59225 11.3173 7.61432 11.1984 7.66074C11.0794 7.70716 10.9709 7.77698 10.8794 7.86606C10.7879 7.95515 10.7152 8.06169 10.6656 8.17937C10.6159 8.29706 10.5904 8.42351 10.5906 8.55123C10.5907 8.67894 10.6165 8.80534 10.6663 8.92293C10.7162 9.04051 10.7891 9.1469 10.8808 9.2358L15.6436 14.1232L10.8878 18.9112C10.7929 18.9986 10.7166 19.1043 10.6636 19.2219C10.6107 19.3396 10.5821 19.4667 10.5796 19.5957C10.5772 19.7247 10.6009 19.8529 10.6494 19.9725C10.6978 20.092 10.77 20.2005 10.8616 20.2914C10.9531 20.3823 11.0622 20.4537 11.1821 20.5013C11.302 20.5489 11.4304 20.5717 11.5593 20.5683C11.6883 20.5649 11.8153 20.5354 11.9325 20.4816C12.0498 20.4278 12.1549 20.3508 12.2416 20.2552L17.6596 14.8036C17.8371 14.6263 17.9374 14.386 17.9387 14.1351C17.94 13.8842 17.8422 13.643 17.6666 13.4638L12.2486 7.9044Z" fill="#162A6C"/>
</svg>
