<svg width="40" height="40" viewBox="0 0 40 40" fill="none" xmlns="http://www.w3.org/2000/svg">
<path d="M19.1667 6.475V2.5H20.8333V6.475H19.1667ZM19.1667 37.5V33.5267H20.8333V37.5H19.1667ZM33.5267 20.8333V19.1667H37.5V20.8333H33.5267ZM2.5 20.8333V19.1667H6.475V20.8333H2.5ZM30.5267 10.6533L29.3467 9.47333L31.75 7.05167L32.95 8.25L30.5267 10.6533ZM8.25 32.95L7.05 31.7517L9.47333 29.3483L10.6533 30.5267L8.25 32.95ZM31.75 32.95L29.3467 30.5283L30.525 29.3483L32.9483 31.7517L31.75 32.95ZM9.475 10.6533L7.05 8.25L8.24833 7.05L10.6517 9.47333L9.475 10.6533ZM20.0083 28.3333C17.695 28.3333 15.7261 27.5239 14.1017 25.905C12.4772 24.2861 11.6656 22.3206 11.6667 20.0083C11.6678 17.6961 12.4772 15.7267 14.095 14.1C15.7128 12.4733 17.6783 11.6622 19.9917 11.6667C22.305 11.6711 24.2739 12.4806 25.8983 14.095C27.5228 15.7094 28.3344 17.675 28.3333 19.9917C28.3322 22.3083 27.5228 24.2772 25.905 25.8983C24.2872 27.5194 22.3217 28.3311 20.0083 28.3333ZM20 26.6667C21.8611 26.6667 23.4378 26.0211 24.73 24.73C26.0222 23.4389 26.6678 21.8622 26.6667 20C26.6656 18.1378 26.02 16.5611 24.73 15.27C23.44 13.9789 21.8633 13.3333 20 13.3333C18.1367 13.3333 16.56 13.9794 15.27 15.2717C13.98 16.5639 13.3344 18.14 13.3333 20C13.3322 21.86 13.9783 23.4367 15.2717 24.73C16.565 26.0233 18.1411 26.6689 20 26.6667Z" fill="black"/>
</svg>
