<svg width="40" height="40" viewBox="0 0 40 40" fill="none" xmlns="http://www.w3.org/2000/svg">
<path d="M4.16699 13.6451C4.34033 10.1451 4.85866 7.96175 6.41199 6.41175C7.96199 4.85841 10.1453 4.34008 13.6453 4.16675M35.8337 13.6451C35.6603 10.1451 35.142 7.96175 33.5887 6.41175C32.0387 4.85841 29.8553 4.34008 26.3553 4.16675M26.3553 35.8334C29.8553 35.6601 32.0387 35.1417 33.5887 33.5884C35.142 32.0384 35.6603 29.8551 35.8337 26.3551M13.6453 35.8334C10.1453 35.6601 7.96199 35.1417 6.41199 33.5884C4.85866 32.0384 4.34033 29.8551 4.16699 26.3551M29.167 28.3334L28.8303 26.9184C28.6934 26.3442 28.4065 25.8167 27.9989 25.3898C27.5912 24.9628 27.0776 24.6518 26.5103 24.4884L22.5003 23.3317V20.8867C23.9937 19.8784 25.0003 17.9934 25.0003 15.8334C25.0003 12.6117 22.7603 10.0001 20.0003 10.0001C17.2387 10.0001 15.0003 12.6117 15.0003 15.8334C15.0003 17.9934 16.0053 19.8784 17.5003 20.8867V23.3317L13.5153 24.4984C12.9651 24.6595 12.4657 24.9598 12.0654 25.3703C11.6651 25.7808 11.3775 26.2876 11.2303 26.8417L10.8337 28.3334" stroke="black" stroke-width="1.5" stroke-linecap="round" stroke-linejoin="round"/>
</svg>
