<svg width="20" height="19" viewBox="0 0 20 19" fill="none" xmlns="http://www.w3.org/2000/svg">
<path d="M14.5 0.5C17.3045 0.5 19.5 2.68674 19.5 5.5C19.5 7.22061 18.7289 8.82587 17.2695 10.6113C16.1708 11.9555 14.7113 13.3668 12.96 14.9775L11.1143 16.6592L11.1133 16.6602L10 17.6729L8.88672 16.6602L8.88574 16.6592L7.04004 14.9775C5.28874 13.3668 3.82916 11.9555 2.73047 10.6113C1.27109 8.82587 0.5 7.22061 0.5 5.5C0.5 2.68674 2.69555 0.5 5.5 0.5C7.08865 0.5 8.62159 1.24211 9.62012 2.40527L10 2.84766L10.3799 2.40527C11.3784 1.24211 12.9114 0.5 14.5 0.5Z" fill="white" stroke="black"/>
</svg>
