<svg width="138" height="138" viewBox="0 0 138 138" fill="none" xmlns="http://www.w3.org/2000/svg">
<g opacity="0.4">
<path fill-rule="evenodd" clip-rule="evenodd" d="M60.8877 8.01396C58.293 6.04297 55.1062 5.01083 51.8487 5.08639H17.0924C15.2047 5.0851 13.3353 5.45595 11.5911 6.17773C9.84683 6.89952 8.26199 7.95808 6.92719 9.29288C5.5924 10.6277 4.53384 12.2125 3.81205 13.9568C3.09026 15.701 2.71941 17.5704 2.72071 19.4581V118.552C2.72592 122.362 4.24176 126.014 6.93585 128.709C9.62993 131.403 13.2824 132.918 17.0924 132.924H120.908C124.718 132.918 128.37 131.403 131.064 128.709C133.758 126.014 135.274 122.362 135.28 118.552V38.3444C135.274 34.5344 133.758 30.8819 131.064 28.1878C128.37 25.4937 124.718 23.9779 120.908 23.9727H68.1327L66.1416 16.018C65.353 12.8321 63.4993 10.0017 60.8877 8.01396ZM97.1916 74.5793C93.2701 74.5793 89.5093 73.0215 86.7365 70.2486C83.9636 67.4758 82.4058 63.715 82.4058 59.7935C82.4058 55.8721 83.9636 52.1113 86.7365 49.3385C89.5093 46.5656 93.2701 45.0078 97.1916 45.0078C101.113 45.0078 104.874 46.5656 107.647 49.3385C110.419 52.1113 111.977 55.8721 111.977 59.7935C111.977 63.715 110.419 67.4758 107.647 70.2486C104.874 73.0215 101.113 74.5793 97.1916 74.5793ZM54.8256 71.1194L108.705 120.602H17.0924C16.5502 120.597 16.0317 120.379 15.6483 119.996C15.2649 119.613 15.0473 119.094 15.0421 118.552V93.9387L47.413 71.1194C48.4597 70.266 49.7688 69.7999 51.1193 69.7999C52.4698 69.7999 53.7789 70.266 54.8256 71.1194Z" fill="#3A4B9A"/>
</g>
</svg>
